<?xml version="1.0" standalone="no"?><!DOCTYPE svg PUBLIC "-//W3C//DTD SVG 1.1//EN" "http://www.w3.org/Graphics/SVG/1.1/DTD/svg11.dtd"><svg t="1709031548886" class="icon" viewBox="0 0 1024 1024" version="1.1" xmlns="http://www.w3.org/2000/svg" p-id="6003" width="260" height="260" xmlns:xlink="http://www.w3.org/1999/xlink"><path d="M876.748954 464.896c2.1504-14.6432 3.1744-29.3888 3.1744-44.1344 0-167.936-136.0896-304.0256-304.0256-304.0256-111.3088 0-208.5888 59.8016-261.5296 148.992-63.488-19.0464-130.3552 16.9984-149.4016 80.4864-10.5472 35.1232-4.4032 73.1136 16.5888 103.1168-87.1424 30.72-149.6064 113.664-149.6064 211.3536C31.948954 784.384 132.198554 884.736 255.897754 884.736h512c123.6992 0 224.0512-100.2496 224.0512-224.0512 0-81.3056-44.032-156.2624-115.2-195.7888z" fill="#F0EEE2" p-id="6004"></path><path d="M576.000154 420.7616m-112.0256 0a112.0256 112.0256 0 1 0 224.0512 0 112.0256 112.0256 0 1 0-224.0512 0Z" fill="#BBAA9C" p-id="6005"></path><path d="M175.923354 580.7104h-128c-8.8064 0.2048-15.7696 7.5776-15.5648 16.384 0.2048 8.4992 7.0656 15.36 15.5648 15.5648h128c8.8064-0.2048 15.7696-7.5776 15.5648-16.384-0.1024-8.4992-6.9632-15.36-15.5648-15.5648z m336.0768-176.0256c0 8.8064 7.168 15.9744 15.9744 15.9744h48.0256c8.8064-0.2048 15.7696-7.5776 15.5648-16.384-0.2048-8.4992-7.0656-15.36-15.5648-15.5648H527.974554c-8.8064 0-15.9744 7.168-15.9744 15.9744z m31.9488-175.9232c8.8064 0 15.9744-7.168 15.9744-15.9744s-7.168-15.9744-15.9744-15.9744h-64c-8.8064 0-15.9744 7.168-15.9744 15.9744s7.168 15.9744 15.9744 15.9744h64z m304.0256 496.0256h-15.9744c-8.8064 0-15.9744 7.168-15.9744 15.9744s7.168 15.9744 15.9744 15.9744h15.9744c8.8064 0 15.9744-7.168 15.9744-15.9744s-7.168-15.9744-15.9744-15.9744z m-256 31.9488h-96.0512c-8.8064-0.2048-16.1792 6.7584-16.384 15.5648s6.7584 16.1792 15.5648 16.384h96.8704c8.8064-0.2048 15.7696-7.5776 15.5648-16.384-0.2048-8.4992-7.0656-15.36-15.5648-15.5648z m128-143.9744h-15.9744c-8.8064 0-15.9744 7.168-15.9744 15.9744s7.168 15.9744 15.9744 15.9744h15.9744c8.8064 0 15.9744-7.168 15.9744-15.9744s-7.168-15.9744-15.9744-15.9744z m112.0256-336.0768c0-8.8064-7.168-15.9744-15.9744-15.9744h-64c-8.8064 0-15.9744 7.168-15.9744 15.9744s7.168 15.9744 15.9744 15.9744h64c8.8064 0.1024 15.9744-7.0656 15.9744-15.9744 0 0.1024 0 0.1024 0 0z m-496.0256 384h-48.0256c-8.8064-0.2048-16.1792 6.7584-16.384 15.5648s6.7584 16.1792 15.5648 16.384H335.974554c8.8064 0.2048 16.1792-6.7584 16.384-15.5648s-6.7584-16.1792-15.5648-16.384h-0.8192z m15.9744-239.9232c-8.8064 0-15.9744 7.168-15.9744 15.9744s7.168 15.9744 15.9744 15.9744 15.9744-7.168 15.9744-15.9744-7.168-15.9744-15.9744-15.9744z" fill="#D8D5BA" p-id="6006"></path><path d="M910.848154 448.3072c0.7168-9.1136 1.1264-18.2272 1.1264-27.5456 0-185.5488-150.4256-335.9744-335.9744-335.9744-114.3808 0-215.3472 57.1392-276.0704 144.4864-3.9936-0.3072-7.8848-0.4096-11.9808-0.4096-88.3712 0-160.0512 71.7824-160.0512 160.1536 0 15.6672 2.3552 31.232 6.8608 46.2848C51.814554 479.8464-0.102246 566.4768 0.000154 660.6848c0 141.4144 114.5856 256 256 256h512c141.4144 0 256-114.5856 256-256 0-85.1968-42.3936-164.864-113.152-212.3776z m-134.8608 404.48c-2.6624 0-5.3248-0.1024-7.9872-0.2048v0.2048h-512c-106.0864 0-192-86.016-192-192 0-99.4304 75.5712-181.248 172.4416-190.976-44.7488-28.4672-57.856-87.8592-29.3888-132.608 26.4192-41.3696 79.7696-56.2176 123.8016-34.304 43.9296-91.136 137.216-154.112 245.1456-154.112 150.2208 0 271.9744 121.7536 271.9744 271.9744 0 25.1904-3.4816 50.3808-10.3424 74.6496 95.744 34.0992 145.7152 139.3664 111.616 235.1104-26.112 73.216-95.4368 122.1632-173.2608 122.2656zM576.000154 292.7616c-70.656 0-128 57.344-128 128s57.344 128 128 128 128-57.344 128-128-57.344-128-128-128z m0 223.9488c-53.0432 0-96.0512-43.008-96.0512-96.0512s43.008-96.0512 96.0512-96.0512 96.0512 43.008 96.0512 96.0512c-0.1024 53.0432-43.1104 96.0512-96.0512 96.0512z" fill="#5F4E56" p-id="6007"></path></svg>